<svg width="14" height="19" viewBox="0 0 14 19" fill="none" xmlns="http://www.w3.org/2000/svg">
<g id="Group 225">
<path id="Vector" d="M6.75657 0.403629L6.75675 0.403208C6.84534 0.199964 7.15263 0.197659 7.24356 0.403922C7.81053 1.69817 8.80464 3.8759 11.0498 6.43301C12.4261 8.00134 13.75 10.1736 13.75 12.4589C13.75 16.199 10.8529 18.75 7 18.75C3.14704 18.75 0.25 16.2006 0.25 12.4589C0.25 10.2626 1.57515 7.99994 2.95018 6.43301C5.19553 3.8757 6.18962 1.69784 6.75657 0.403629Z" fill="white" stroke="#FF003C" stroke-width="0.5"/>
<path id="Vector_2" d="M8.93519 12.0937C10.0546 10.1159 9.8959 8.18053 10.7808 8.52928C11.983 9.00574 13.3139 11.4536 12.8151 13.6721C12.459 15.2538 11.3096 16.2116 9.84478 15.7548C8.66195 15.3864 7.92687 13.8752 8.93519 12.0937Z" fill="#FF527B"/>
</g>
</svg>
