<svg width="14" height="19" viewBox="0 0 14 19" fill="none" xmlns="http://www.w3.org/2000/svg">
<path id="Vector" d="M8.42199 6.20975L8.42171 6.20944C8.03463 5.78187 7.55665 5.55892 7 5.55892C6.44333 5.55892 5.96557 5.7819 5.57903 6.20959C5.19266 6.63709 5 7.15358 5 7.74522C5 8.33679 5.19262 8.853 5.57903 9.27988C5.9655 9.70815 6.44324 9.93153 7 9.93153C7.55681 9.93153 8.03482 9.70812 8.42185 9.27988C8.8077 8.85295 9 8.33674 9 7.74522C9 7.15371 8.80771 6.63726 8.42199 6.20975ZM2.28992 2.32914L2.28995 2.3291C3.65438 0.936459 5.22121 0.25 7 0.25C8.77879 0.25 10.3456 0.936459 11.71 2.3291L11.7101 2.32914C13.0628 3.70925 13.75 5.5697 13.75 7.93885C13.75 9.43072 13.2443 11.0532 12.2096 12.8105C11.175 14.5671 9.60254 16.4811 7.48431 18.5522C7.42021 18.6108 7.34424 18.6591 7.25419 18.6965L7.35 18.9274L7.25419 18.6965C7.16536 18.7333 7.08115 18.75 7 18.75C6.91885 18.75 6.83464 18.7333 6.74581 18.6965L6.65 18.9274L6.74581 18.6965C6.65576 18.6591 6.57979 18.6108 6.51569 18.5522C4.39746 16.4811 2.82504 14.5671 1.79041 12.8105C0.755699 11.0532 0.25 9.43072 0.25 7.93885C0.25 5.5697 0.937201 3.70925 2.28992 2.32914Z" fill="white" stroke="#FF003C" stroke-width="0.5"/>
</svg>
